Coordinates
version=1
nRows=12
nColumns=34
inDegrees=yes

Units are S.I. units (second, meters, Newtons, ...)
If the header above contains a line with 'inDegrees', this indicates whether rotational values are in degrees (yes) or radians (no).

endheader
time	pelvis_tilt	pelvis_list	pelvis_rotation	pelvis_tx	pelvis_ty	pelvis_tz	hip_flexion_r	hip_adduction_r	hip_rotation_r	knee_angle_r	ankle_angle_r	subtalar_angle_r	mtp_angle_r	hip_flexion_l	hip_adduction_l	hip_rotation_l	knee_angle_l	ankle_angle_l	subtalar_angle_l	mtp_angle_l	lumbar_extension	lumbar_bending	lumbar_rotation	arm_flex_r	arm_add_r	arm_rot_r	elbow_flex_r	pro_sup_r	arm_flex_l	arm_add_l	arm_rot_l	elbow_flex_l	pro_sup_l
     14.33333330	     19.81922209	     -7.78087613	    160.52358251	      0.14762804	      1.10709475	     -0.22041214	     18.79782461	     -2.32770462	     -5.98569797	     74.43962151	      0.00000000	      0.00000000	      0.00000000	     19.93655029	     -7.34547636	      5.52935551	     76.67186131	      0.00000000	      0.00000000	      0.00000000	    -19.17164771	      2.16310099	     -1.71601140	      0.00000000	      0.00000000	      0.00000000	      0.00000000	      0.00000000	      0.00000000	      0.00000000	      0.00000000	      0.00000000	      0.00000000
     14.35000000	     19.96218655	     -7.83998462	    160.50846403	      0.14651425	      1.10691572	     -0.22095696	     18.84461602	     -2.29055947	     -5.98260410	     74.29520992	      0.00000000	      0.00000000	      0.00000000	     19.94167569	     -7.34433220	      5.40280109	     76.50168680	      0.00000000	      0.00000000	      0.00000000	    -19.20505647	      2.13527700	     -1.76320170	      0.00000000	      0.00000000	      0.00000000	      0.00000000	      0.00000000	      0.00000000	      0.00000000	      0.00000000	      0.00000000	      0.00000000
     14.36666670	     20.10244018	     -7.89526180	    160.51255113	      0.14551291	      1.10675428	     -0.22146867	     18.91614578	     -2.24672720	     -6.00902461	     74.16300633	      0.00000000	      0.00000000	      0.00000000	     19.94763983	     -7.35222732	      5.28879573	     76.28656182	      0.00000000	      0.00000000	      0.00000000	    -19.27056049	      2.11080387	     -1.79807758	      0.00000000	      0.00000000	      0.00000000	      0.00000000	      0.00000000	      0.00000000	      0.00000000	      0.00000000	      0.00000000	      0.00000000
     14.38333330	     20.23397299	     -7.95644032	    160.52255809	      0.14447317	      1.10658990	     -0.22197596	     18.98719290	     -2.20876790	     -6.02509052	     74.00351249	      0.00000000	      0.00000000	      0.00000000	     19.96798202	     -7.34943622	      5.17355164	     76.12684139	      0.00000000	      0.00000000	      0.00000000	    -19.34889796	      2.07668894	     -1.82719751	      0.00000000	      0.00000000	      0.00000000	      0.00000000	      0.00000000	      0.00000000	      0.00000000	      0.00000000	      0.00000000	      0.00000000
     14.40000000	     20.37360626	     -8.02367061	    160.54767847	      0.14341564	      1.10639481	     -0.22250467	     19.05535663	     -2.17604189	     -6.05513467	     73.85514335	      0.00000000	      0.00000000	      0.00000000	     19.98171011	     -7.34805381	      5.06640759	     75.95343322	      0.00000000	      0.00000000	      0.00000000	    -19.43006194	      2.04271376	     -1.84640295	      0.00000000	      0.00000000	      0.00000000	      0.00000000	      0.00000000	      0.00000000	      0.00000000	      0.00000000	      0.00000000	      0.00000000
     14.41666670	     20.52724031	     -8.09380339	    160.57327236	      0.14231874	      1.10622379	     -0.22303781	     19.10788177	     -2.15760468	     -6.09820187	     73.68898059	      0.00000000	      0.00000000	      0.00000000	     19.98498107	     -7.35313211	      4.94889814	     75.74485326	      0.00000000	      0.00000000	      0.00000000	    -19.49874928	      2.02854254	     -1.85512969	      0.00000000	      0.00000000	      0.00000000	      0.00000000	      0.00000000	      0.00000000	      0.00000000	      0.00000000	      0.00000000	      0.00000000
     14.43333330	     20.67255179	     -8.16891003	    160.59422544	      0.14116017	      1.10595913	     -0.22359662	     19.12030596	     -2.14947082	     -6.11827225	     73.50526467	      0.00000000	      0.00000000	      0.00000000	     19.99600067	     -7.33637066	      4.83540260	     75.60302311	      0.00000000	      0.00000000	      0.00000000	    -19.54729560	      2.00955909	     -1.85512248	      0.00000000	      0.00000000	      0.00000000	      0.00000000	      0.00000000	      0.00000000	      0.00000000	      0.00000000	      0.00000000	      0.00000000
     14.45000000	     20.83884783	     -8.24294904	    160.62221026	      0.14000104	      1.10566824	     -0.22416993	     19.12538173	     -2.15532949	     -6.15808161	     73.33407093	      0.00000000	      0.00000000	      0.00000000	     19.97799830	     -7.34291396	      4.71280780	     75.36577910	      0.00000000	      0.00000000	      0.00000000	    -19.57551350	      2.00554985	     -1.84741143	      0.00000000	      0.00000000	      0.00000000	      0.00000000	      0.00000000	      0.00000000	      0.00000000	      0.00000000	      0.00000000	      0.00000000
     14.46666670	     20.98244518	     -8.32124253	    160.62675087	      0.13880566	      1.10542491	     -0.22477033	     19.09307084	     -2.16289544	     -6.16252886	     73.13533621	      0.00000000	      0.00000000	      0.00000000	     19.97670437	     -7.31304722	      4.58784660	     75.23774807	      0.00000000	      0.00000000	      0.00000000	    -19.59151844	      1.99039696	     -1.83334491	      0.00000000	      0.00000000	      0.00000000	      0.00000000	      0.00000000	      0.00000000	      0.00000000	      0.00000000	      0.00000000	      0.00000000
     14.48333330	     21.14012699	     -8.39068763	    160.64134844	      0.13770658	      1.10512509	     -0.22536604	     19.08978651	     -2.16763918	     -6.18784124	     72.99056443	      0.00000000	      0.00000000	      0.00000000	     19.94703342	     -7.31538579	      4.47231500	     74.96266178	      0.00000000	      0.00000000	      0.00000000	    -19.61511851	      1.98742698	     -1.81527896	      0.00000000	      0.00000000	      0.00000000	      0.00000000	      0.00000000	      0.00000000	      0.00000000	      0.00000000	      0.00000000	      0.00000000
     14.50000000	     21.27457802	     -8.46715089	    160.64663325	      0.13663381	      1.10486330	     -0.22596623	     19.07030560	     -2.16568551	     -6.17740361	     72.82903806	      0.00000000	      0.00000000	      0.00000000	     19.94683829	     -7.28488695	      4.35792631	     74.78781004	      0.00000000	      0.00000000	      0.00000000	    -19.65905017	      1.97741119	     -1.79766656	      0.00000000	      0.00000000	      0.00000000	      0.00000000	      0.00000000	      0.00000000	      0.00000000	      0.00000000	      0.00000000	      0.00000000
     14.51666670	     21.40252303	     -8.53955217	    160.65246441	      0.13561240	      1.10465579	     -0.22657085	     19.07385133	     -2.16507298	     -6.16415135	     72.70023408	      0.00000000	      0.00000000	      0.00000000	     19.93933791	     -7.26732941	      4.25607468	     74.60145252	      0.00000000	      0.00000000	      0.00000000	    -19.72052692	      1.95311090	     -1.77997072	      0.00000000	      0.00000000	      0.00000000	      0.00000000	      0.00000000	      0.00000000	      0.00000000	      0.00000000	      0.00000000	      0.00000000
